<svg width="72" height="56" viewBox="0 0 72 56" fill="none" xmlns="http://www.w3.org/2000/svg">
<path d="M4.98327 3C4.98327 6.34803 5.02644 9.69995 4.97409 13.0473C4.86368 20.1063 3.85306 27.1 3.66109 34.1601C3.54304 38.5016 3.60295 42.9539 3.29382 47.2829C3.18184 48.851 3 50.4268 3 52" stroke="black" stroke-width="6" stroke-linecap="round" stroke-linejoin="round"/>
<path d="M5 25C8.02505 22.324 10.3467 18.6092 12.6801 15.3542C14.5265 12.7786 16.6919 10.4626 18.5958 7.9375C19.2399 7.08331 19.9163 6.28725 20.5885 5.45833C20.9691 4.98902 21.7484 4.50504 22 4" stroke="black" stroke-width="6" stroke-linecap="round" stroke-linejoin="round"/>
<path d="M10 21C11.5599 24.1028 12.8398 27.2635 14.2405 30.4399C15.7829 33.9378 17.1735 37.4502 18.4597 41.0442C18.9266 42.3488 19.3629 43.7879 19.9833 45.0364C20.7824 46.6448 21.3172 48.3433 22.1887 49.9227C22.7397 50.9212 23.6355 51.933 24 53" stroke="black" stroke-width="6" stroke-linecap="round" stroke-linejoin="round"/>
<path d="M46.6957 3C46.6957 13.4157 46.9679 23.8738 46.5217 34.2803C46.3128 39.153 46 43.9671 46 48.8419C46 49.9462 46 51.0505 46 52.1548C46 53.3547 47.5255 52.9252 48.4348 52.9252C51.1273 52.9252 53.8197 52.9252 56.5122 52.9252C59.8488 52.9252 63.1854 52.9252 66.522 52.9252C69.5274 52.9252 68.9568 48.4461 68.9568 46.3379" stroke="black" stroke-width="6" stroke-linecap="round" stroke-linejoin="round"/>
</svg>
